<svg width="25" height="24" viewBox="0 0 25 24" fill="none" xmlns="http://www.w3.org/2000/svg">
<path d="M16.0701 3H8.07007C5.31007 3 3.07007 5.24 3.07007 8V16C3.07007 18.76 5.31007 21 8.07007 21H16.0701C18.8301 21 21.0701 18.76 21.0701 16V8C21.0701 5.24 18.8301 3 16.0701 3ZM5.07007 16V8C5.07007 6.35 6.42007 5 8.07007 5H13.0701V19H8.07007C6.42007 19 5.07007 17.65 5.07007 16ZM19.0701 16C19.0701 17.65 17.7201 19 16.0701 19H15.0701V5H16.0701C17.7201 5 19.0701 6.35 19.0701 8V16Z" fill="black"/>
</svg>
