<svg width="24" height="24" viewBox="0 0 24 24" fill="none" xmlns="http://www.w3.org/2000/svg">
<path d="M21.07 15.16C20.69 14.56 20.02 14.23 19.32 14.31C17.55 14.5 15.8 14.11 14.1 13.16C12.78 12.42 11.73 11.32 11.08 9.98999C10.22 8.23999 9.95 6.45999 10.29 4.69999C10.42 4.00999 10.15 3.32999 9.60002 2.90999C9.03002 2.47999 8.28001 2.40999 7.64001 2.72999C2.74001 5.18999 0.710009 10.96 2.92001 16.15C3.87001 18.38 5.63001 20.12 7.86001 21.07C9.34001 21.69 10.85 22 12.32 22C15.85 22 19.13 20.27 21.08 17.13C21.46 16.52 21.45 15.77 21.08 15.17L21.07 15.16ZM8.64001 19.23C6.91001 18.5 5.49001 17.09 4.76 15.37C2.75001 10.66 4.98001 6.47999 8.28001 4.65999C7.95001 6.74999 8.30001 8.83999 9.30001 10.88C10.13 12.57 11.46 13.96 13.13 14.9C15.1 16 17.14 16.49 19.21 16.33C17.31 19.14 13.28 21.19 8.64001 19.23Z" fill="white"/>
</svg>
