<svg width="24" height="24" viewBox="0 0 24 24" fill="none" xmlns="http://www.w3.org/2000/svg">
<path d="M12 6C8.69 6 6 8.69 6 12C6 15.31 8.69 18 12 18C15.31 18 18 15.31 18 12C18 8.69 15.31 6 12 6ZM12 16C9.79 16 8 14.21 8 12C8 9.79 9.79 8 12 8C14.21 8 16 9.79 16 12C16 14.21 14.21 16 12 16Z" fill="white"/>
<path d="M12 5C12.55 5 13 4.55 13 4V3C13 2.45 12.55 2 12 2C11.45 2 11 2.45 11 3V4C11 4.55 11.45 5 12 5Z" fill="white"/>
<path d="M12 19C11.45 19 11 19.45 11 20V21C11 21.55 11.45 22 12 22C12.55 22 13 21.55 13 21V20C13 19.45 12.55 19 12 19Z" fill="white"/>
<path d="M5 12C5 11.45 4.55 11 4 11H3C2.45 11 2 11.45 2 12C2 12.55 2.45 13 3 13H4C4.55 13 5 12.55 5 12Z" fill="white"/>
<path d="M21 11H20C19.45 11 19 11.45 19 12C19 12.55 19.45 13 20 13H21C21.55 13 22 12.55 22 12C22 11.45 21.55 11 21 11Z" fill="white"/>
<path d="M5.63995 16.95L4.92995 17.66C4.53995 18.05 4.53995 18.68 4.92995 19.07C5.12995 19.27 5.37995 19.36 5.63995 19.36C5.89995 19.36 6.14995 19.26 6.34995 19.07L7.05995 18.36C7.44995 17.97 7.44995 17.34 7.05995 16.95C6.66995 16.56 6.03995 16.56 5.64995 16.95H5.63995Z" fill="white"/>
<path d="M17.66 7.34001C17.92 7.34001 18.17 7.24001 18.37 7.05001L19.08 6.34001C19.47 5.95001 19.47 5.32001 19.08 4.93001C18.69 4.54001 18.06 4.54001 17.67 4.93001L16.96 5.64001C16.57 6.03001 16.57 6.66001 16.96 7.05001C17.16 7.25001 17.41 7.34001 17.67 7.34001H17.66Z" fill="white"/>
<path d="M18.36 16.95C17.97 16.56 17.34 16.56 16.95 16.95C16.56 17.34 16.56 17.97 16.95 18.36L17.66 19.07C17.86 19.27 18.11 19.36 18.37 19.36C18.63 19.36 18.88 19.26 19.08 19.07C19.47 18.68 19.47 18.05 19.08 17.66L18.37 16.95H18.36Z" fill="white"/>
<path d="M5.63996 7.05001C5.83996 7.25001 6.08996 7.34001 6.34996 7.34001C6.60996 7.34001 6.85996 7.24001 7.05996 7.05001C7.44996 6.66001 7.44996 6.03001 7.05996 5.64001L6.34996 4.93001C5.95996 4.54001 5.32996 4.54001 4.93996 4.93001C4.54996 5.32001 4.54996 5.95001 4.93996 6.34001L5.64996 7.05001H5.63996Z" fill="white"/>
</svg>
